# Blender v2.82 (sub 7) OBJ File: 'crate.blend'
# www.blender.org
# mtllib crate.mtl
v 1.000000 -2.108345 -1.000000
v 1.000000 2.108345 -1.000000
v 0.999999 2.108345 1.000001
v -1.106926 0.599860 1.088377
v -1.106926 0.766595 1.088377
v -1.106926 0.599860 -1.110676
v -1.106926 0.766595 -1.110676
v 1.092127 0.599860 1.088377
v 1.092127 0.766595 1.088377
v 1.092127 0.599860 -1.110676
v 1.092127 0.766595 -1.110676
v 0.723683 2.246701 -0.723683
v 0.723683 2.246701 0.723684
v -0.723683 2.246701 0.723683
v -0.424854 1.497298 1.085330
v -0.424854 1.497298 -1.099735
v -0.614805 1.497298 -1.099735
v -0.614805 1.497298 1.085330
v -0.424854 1.607676 -1.000352
v -0.424854 1.607676 0.985947
v -0.614805 1.607676 -1.000352
v -0.614805 1.607676 0.985947
v -1.000000 -2.108345 1.000000
v -1.000000 2.108345 -1.000000
v 1.106926 0.599860 1.088377
v 1.106926 0.766595 1.088377
v 1.106926 0.599860 -1.110676
v 1.106926 0.766595 -1.110676
v -1.092127 0.599860 1.088377
v -1.092127 0.766595 1.088377
v -1.092127 0.599860 -1.110676
v -1.092127 0.766595 -1.110676
v -0.723683 2.246701 -0.723683
v 0.424854 1.497298 -1.099735
v 0.424854 1.497298 1.085330
v 0.424854 -1.497298 1.085330
v 0.614805 1.497298 -1.099735
v 0.614805 1.497298 1.085330
v 0.424854 1.607676 -1.000352
v 0.424854 1.607676 0.985947
v 0.614805 1.607676 -1.000352
v 0.614805 1.607676 0.985947
v 0.999999 -2.108345 1.000001
v -1.106926 -0.599860 1.088377
v -1.106926 -0.766595 1.088377
v -1.106926 -0.599860 -1.110676
v -1.106926 -0.766595 -1.110676
v 1.092127 -0.599860 1.088377
v 1.092127 -0.766595 1.088377
v 1.092127 -0.599860 -1.110676
v 1.092127 -0.766595 -1.110676
v 0.723683 -2.246701 -0.723683
v 0.723683 -2.246701 0.723684
v -0.424854 -1.497298 -1.099735
v -0.424854 -1.497298 1.085330
v -0.614805 -1.497298 -1.099735
v -0.614805 -1.497298 1.085330
v -0.424854 -1.607676 -1.000352
v -0.424854 -1.607676 0.985947
v -0.614805 -1.607676 -1.000352
v -0.614805 -1.607676 0.985947
v -1.000000 2.108345 1.000000
v -1.000000 -2.108345 -1.000000
v 1.106926 -0.599860 1.088377
v 1.106926 -0.766595 1.088377
v 1.106926 -0.599860 -1.110676
v 1.106926 -0.766595 -1.110676
v -1.092127 -0.599860 1.088377
v -1.092127 -0.766595 1.088377
v -1.092127 -0.599860 -1.110676
v -1.092127 -0.766595 -1.110676
v -0.723683 -2.246701 -0.723683
v -0.723683 -2.246701 0.723684
v 0.424854 -1.497298 -1.099735
v 0.614805 -1.497298 -1.099735
v 0.614805 -1.497298 1.085330
v 0.424854 -1.607676 -1.000352
v 0.424854 -1.607676 0.985947
v 0.614805 -1.607676 -1.000352
v 0.614805 -1.607676 0.985947
vt 0.846065 0.354945
vt 0.676852 0.185886
vt 0.846065 0.185885
vt 0.355267 0.983174
vt 0.209432 0.959817
vt 0.331889 0.959817
vt 0.169213 0.000000
vt 0.338426 0.356436
vt 0.169213 0.356436
vt 0.507639 0.000000
vt 0.676852 0.356436
vt 0.507639 0.356436
vt 0.338426 0.000000
vt 0.507639 0.356436
vt 0.338426 0.356436
vt 0.000000 0.000000
vt 0.355267 1.000000
vt 0.369374 0.814115
vt 0.369374 1.000000
vt 0.428536 1.000000
vt 0.442643 0.814115
vt 0.442643 1.000000
vt 0.959333 0.185885
vt 0.973440 0.000000
vt 0.973440 0.185885
vt 0.944377 0.812932
vt 0.930271 0.998818
vt 0.930271 0.812932
vt 0.925537 0.356436
vt 0.739483 0.542322
vt 0.739483 0.356436
vt 0.744216 0.628229
vt 0.558162 0.814115
vt 0.558162 0.628229
vt 0.209432 0.837472
vt 0.331889 0.837472
vt 0.355267 0.814115
vt 0.186054 0.983174
vt 0.186054 0.814115
vt 0.184871 0.365766
vt 0.369741 0.618899
vt 0.184871 0.618899
vt 0.878977 0.262463
vt 0.862906 0.009330
vt 0.878977 0.009330
vt 0.930271 0.812932
vt 0.946342 0.628229
vt 0.946342 0.812932
vt 0.895049 0.009330
vt 0.911120 0.000000
vt 0.911120 0.009330
vt 0.943262 0.335803
vt 0.959333 0.167901
vt 0.959333 0.335803
vt 0.878977 0.000000
vt 0.000000 0.365766
vt 0.176462 0.356436
vt 0.184871 0.365766
vt 0.193279 0.628229
vt 0.974555 0.814115
vt 0.960449 0.628229
vt 0.974555 0.628229
vt 0.456749 1.000000
vt 0.442643 0.814115
vt 0.456749 0.814115
vt 1.000000 0.542322
vt 0.985893 0.356436
vt 1.000000 0.356436
vt 0.988662 0.814115
vt 0.974556 0.814115
vt 0.862906 0.185885
vt 0.676852 0.000000
vt 0.862906 0.000000
vt 0.186054 0.814115
vt 0.000000 0.628229
vt 0.186054 0.628229
vt 0.369741 0.618899
vt 0.554612 0.365766
vt 0.554612 0.618899
vt 0.895048 0.009330
vt 0.878977 0.262463
vt 0.878977 0.009330
vt 0.927191 0.009330
vt 0.911120 0.262463
vt 0.911120 0.009330
vt 0.927191 0.000000
vt 0.943262 0.184703
vt 0.927191 0.184703
vt 0.911120 0.000000
vt 0.846065 0.185885
vt 0.862136 0.353787
vt 0.846065 0.353787
vt 0.878977 0.000000
vt 0.731074 0.628229
vt 0.554612 0.618899
vt 0.739483 0.618899
vt 0.546204 0.628229
vt 0.700230 0.209243
vt 0.676852 0.354945
vt 0.372108 0.814115
vt 0.386215 1.000000
vt 0.372108 1.000000
vt 0.400322 0.814115
vt 0.414429 1.000000
vt 0.400322 1.000000
vt 0.957679 0.356436
vt 0.971786 0.542322
vt 0.957679 0.542322
vt 0.987547 0.185885
vt 0.973440 0.000000
vt 0.987547 0.000000
vt 0.372108 0.814115
vt 0.186054 0.628229
vt 0.372108 0.628229
vt 0.930271 0.814115
vt 0.744216 0.628229
vt 0.930271 0.628229
vt 0.822687 0.331588
vt 0.822687 0.209243
vt 0.700230 0.331588
vt 0.000000 0.618899
vt 0.184871 0.618899
vt 0.895049 0.262463
vt 0.911120 0.262463
vt 0.941608 0.356436
vt 0.957679 0.541139
vt 0.941608 0.541139
vt 0.911120 0.271793
vt 0.927191 0.184703
vt 0.943262 0.352604
vt 0.927191 0.352604
vt 0.878977 0.271793
vt 0.862906 0.262463
vt 0.176462 0.628229
vt 0.193279 0.356436
vt 0.369741 0.365766
vt 0.960449 0.628229
vt 0.946342 0.814115
vt 0.946342 0.628229
vt 0.428536 0.814115
vt 0.414429 1.000000
vt 0.414429 0.814115
vt 0.400322 0.814115
vt 0.386215 1.000000
vt 0.386215 0.814115
vt 0.971786 0.542322
vt 0.985893 0.356436
vt 0.985893 0.542322
vt 0.558162 0.628229
vt 0.372108 0.814115
vt 0.372108 0.628229
vt 0.186054 0.814115
vt 0.000000 1.000000
vt 0.000000 0.814115
vt 0.554612 0.365766
vt 0.739483 0.365766
vt 0.925537 0.541139
vt 0.941608 0.356436
vt 0.941608 0.541139
vt 0.927191 0.262463
vt 0.911120 0.271793
vt 0.943262 0.167901
vt 0.959333 0.000000
vt 0.959333 0.167901
vt 0.895048 0.262463
vt 0.878977 0.271793
vt 0.731074 0.356436
vt 0.369741 0.365766
vt 0.546204 0.356436
vt 0.338426 0.000000
vt 0.676852 0.000000
vt 0.507639 0.000000
vt 0.000000 0.356436
vt 0.355267 0.814115
vt 0.428536 0.814115
vt 0.959333 0.000000
vt 0.944377 0.998818
vt 0.925537 0.542322
vt 0.744216 0.814115
vt 0.930271 0.628229
vt 0.895049 0.000000
vt 0.943262 0.167901
vt 0.862906 0.000000
vt 0.008408 0.356436
vt 0.361333 0.628229
vt 0.960449 0.814115
vt 0.442643 1.000000
vt 0.985893 0.542322
vt 0.988662 0.628229
vt 0.676852 0.185885
vt 0.000000 0.814115
vt 0.943262 0.000000
vt 0.927191 0.000000
vt 0.862136 0.185885
vt 0.895048 0.000000
vt 0.563021 0.628229
vt 0.378150 0.628229
vt 0.386215 0.814115
vt 0.414429 0.814115
vt 0.971786 0.356436
vt 0.973440 0.185885
vt 0.186054 0.814115
vt 0.744216 0.814115
vt 0.957679 0.356436
vt 0.895049 0.271793
vt 0.943262 0.184703
vt 0.862906 0.271793
vt 0.008409 0.628229
vt 0.361333 0.356436
vt 0.960449 0.814115
vt 0.428536 1.000000
vt 0.400322 1.000000
vt 0.971786 0.356436
vt 0.558162 0.814115
vt 0.186054 1.000000
vt 0.925537 0.356436
vt 0.927191 0.271793
vt 0.943262 0.000000
vt 0.895048 0.271793
vt 0.563021 0.356436
vt 0.378150 0.356436
vn 0.0000 -1.0000 0.0000
vn -0.4477 0.8942 0.0000
vn 1.0000 -0.0000 0.0000
vn -0.0000 0.0000 1.0000
vn -1.0000 0.0000 0.0000
vn 0.0000 0.0000 -1.0000
vn 0.0000 1.0000 0.0000
vn 0.0000 0.8942 -0.4477
vn -0.0000 0.8942 0.4477
vn 0.4477 0.8942 0.0000
vn 0.0000 -0.6691 0.7432
vn 0.0000 -0.6691 -0.7432
vn -0.4477 -0.8942 0.0000
vn -0.0000 -0.8942 -0.4477
vn -0.0000 -0.8942 0.4477
vn 0.4477 -0.8942 0.0000
vn 0.0000 0.6691 0.7432
vn 0.0000 0.6691 -0.7432
# usemtl Material
# s off
f 43/1/1 63/2/1 1/3/1
f 24/4/2 14/5/2 33/6/2
f 2/7/3 43/8/3 1/9/3
f 3/10/4 23/11/4 43/12/4
f 62/13/5 63/14/5 23/15/5
f 1/9/6 24/16/6 2/7/6
f 5/17/5 6/18/5 4/19/5
f 7/20/6 10/21/6 6/22/6
f 11/23/3 8/24/3 10/25/3
f 9/26/4 4/27/4 8/28/4
f 10/29/1 4/30/1 6/31/1
f 7/32/7 9/33/7 11/34/7
f 33/6/7 13/35/7 12/36/7
f 24/4/8 12/36/8 2/37/8
f 62/38/9 13/35/9 14/5/9
f 2/37/10 13/35/10 3/39/10
f 54/40/5 15/41/5 16/42/5
f 55/43/6 18/44/6 15/45/6
f 55/46/7 56/47/7 57/48/7
f 16/49/11 21/50/11 17/51/11
f 22/52/1 19/53/1 20/54/1
f 18/44/12 20/55/12 15/45/12
f 17/56/3 22/57/3 18/58/3
f 15/41/5 19/59/5 16/42/5
f 27/60/3 26/61/3 25/62/3
f 31/63/6 28/64/6 27/65/6
f 29/66/5 32/67/5 31/68/5
f 25/62/4 30/69/4 29/70/4
f 25/71/1 31/72/1 27/73/1
f 30/74/7 28/75/7 32/76/7
f 35/77/3 74/78/3 34/79/3
f 38/80/6 36/81/6 35/82/6
f 34/83/4 75/84/4 37/85/4
f 75/86/7 36/87/7 76/88/7
f 41/89/11 34/83/11 37/85/11
f 39/90/1 42/91/1 40/92/1
f 40/93/12 38/80/12 35/82/12
f 42/94/5 37/95/5 38/96/5
f 39/97/3 35/77/3 34/79/3
f 24/4/7 3/39/7 2/37/7
f 72/98/13 23/99/13 63/2/13
f 46/100/5 45/101/5 44/102/5
f 50/103/6 47/104/6 46/105/6
f 48/106/3 51/107/3 50/108/3
f 44/109/4 49/110/4 48/111/4
f 44/112/7 50/113/7 46/114/7
f 49/115/1 47/116/1 51/117/1
f 53/118/1 72/98/1 52/119/1
f 1/3/14 72/98/14 63/2/14
f 73/120/15 43/1/15 23/99/15
f 43/1/16 52/119/16 1/3/16
f 56/121/3 18/58/3 57/122/3
f 54/123/4 17/51/4 56/124/4
f 17/125/1 15/126/1 18/127/1
f 60/128/17 54/123/17 56/124/17
f 58/129/7 61/130/7 59/131/7
f 59/132/18 57/133/18 55/43/18
f 61/134/3 56/121/3 57/122/3
f 58/135/5 55/136/5 54/40/5
f 65/137/3 66/138/3 64/139/3
f 67/140/6 70/141/6 66/142/6
f 71/143/5 68/144/5 70/145/5
f 69/146/4 64/147/4 68/148/4
f 70/149/7 64/150/7 66/151/7
f 67/152/1 69/153/1 71/154/1
f 38/96/5 75/155/5 76/156/5
f 35/157/1 37/158/1 38/159/1
f 74/160/17 79/161/17 75/84/17
f 80/162/7 77/163/7 78/164/7
f 76/165/18 78/166/18 36/81/18
f 75/155/5 80/167/5 76/156/5
f 36/168/3 77/169/3 74/78/3
f 43/1/1 23/99/1 63/2/1
f 24/4/2 62/38/2 14/5/2
f 2/7/3 3/170/3 43/8/3
f 3/10/4 62/171/4 23/11/4
f 62/13/5 24/172/5 63/14/5
f 1/9/6 63/173/6 24/16/6
f 5/17/5 7/174/5 6/18/5
f 7/20/6 11/175/6 10/21/6
f 11/23/3 9/176/3 8/24/3
f 9/26/4 5/177/4 4/27/4
f 10/29/1 8/178/1 4/30/1
f 7/32/7 5/179/7 9/33/7
f 33/6/7 14/5/7 13/35/7
f 24/4/8 33/6/8 12/36/8
f 62/38/9 3/39/9 13/35/9
f 2/37/10 12/36/10 13/35/10
f 54/40/5 55/136/5 15/41/5
f 55/43/6 57/133/6 18/44/6
f 55/46/7 54/180/7 56/47/7
f 16/49/11 19/181/11 21/50/11
f 22/52/1 21/182/1 19/53/1
f 18/44/12 22/183/12 20/55/12
f 17/56/3 21/184/3 22/57/3
f 15/41/5 20/185/5 19/59/5
f 27/60/3 28/186/3 26/61/3
f 31/63/6 32/187/6 28/64/6
f 29/66/5 30/188/5 32/67/5
f 25/62/4 26/189/4 30/69/4
f 25/71/1 29/190/1 31/72/1
f 30/74/7 26/191/7 28/75/7
f 35/77/3 36/168/3 74/78/3
f 38/80/6 76/165/6 36/81/6
f 34/83/4 74/160/4 75/84/4
f 75/86/7 74/192/7 36/87/7
f 41/89/11 39/193/11 34/83/11
f 39/90/1 41/194/1 42/91/1
f 40/93/12 42/195/12 38/80/12
f 42/94/5 41/196/5 37/95/5
f 39/97/3 40/197/3 35/77/3
f 24/4/7 62/38/7 3/39/7
f 72/98/13 73/120/13 23/99/13
f 46/100/5 47/198/5 45/101/5
f 50/103/6 51/199/6 47/104/6
f 48/106/3 49/200/3 51/107/3
f 44/109/4 45/201/4 49/110/4
f 44/112/7 48/202/7 50/113/7
f 49/115/1 45/203/1 47/116/1
f 53/118/1 73/120/1 72/98/1
f 1/3/14 52/119/14 72/98/14
f 73/120/15 53/118/15 43/1/15
f 43/1/16 53/118/16 52/119/16
f 56/121/3 17/56/3 18/58/3
f 54/123/4 16/49/4 17/51/4
f 17/125/1 16/204/1 15/126/1
f 60/128/17 58/205/17 54/123/17
f 58/129/7 60/206/7 61/130/7
f 59/132/18 61/207/18 57/133/18
f 61/134/3 60/208/3 56/121/3
f 58/135/5 59/209/5 55/136/5
f 65/137/3 67/210/3 66/138/3
f 67/140/6 71/211/6 70/141/6
f 71/143/5 69/212/5 68/144/5
f 69/146/4 65/213/4 64/147/4
f 70/149/7 68/214/7 64/150/7
f 67/152/1 65/215/1 69/153/1
f 38/96/5 37/95/5 75/155/5
f 35/157/1 34/216/1 37/158/1
f 74/160/17 77/217/17 79/161/17
f 80/162/7 79/218/7 77/163/7
f 76/165/18 80/219/18 78/166/18
f 75/155/5 79/220/5 80/167/5
f 36/168/3 78/221/3 77/169/3
