# Blender v2.82 (sub 7) OBJ File: ''
# www.blender.org
mtllib sphere.mtl
v 0.000000 0.707107 -0.707107
v 0.000000 0.382683 -0.923880
v 0.000000 -0.382684 -0.923880
v 0.000000 -0.923880 -0.382683
v 0.146447 0.923880 -0.353553
v 0.270598 0.707107 -0.653281
v 0.353553 0.382683 -0.853553
v 0.382683 -0.000000 -0.923880
v 0.353553 -0.382684 -0.853553
v 0.270598 -0.707107 -0.653281
v 0.146447 -0.923880 -0.353553
v 0.270598 0.923880 -0.270598
v 0.500000 0.707107 -0.500000
v 0.653281 0.382683 -0.653281
v 0.707107 -0.000000 -0.707107
v 0.653281 -0.382684 -0.653281
v 0.500000 -0.707107 -0.500000
v 0.270598 -0.923880 -0.270598
v 0.353553 0.923880 -0.146447
v 0.653281 0.707107 -0.270598
v 0.853553 0.382683 -0.353553
v 0.923879 -0.000000 -0.382683
v 0.853553 -0.382684 -0.353553
v 0.653281 -0.707107 -0.270598
v 0.353553 -0.923880 -0.146447
v 0.382683 0.923880 -0.000000
v 0.707107 0.707107 -0.000000
v 0.923879 0.382683 -0.000000
v 1.000000 -0.000000 -0.000000
v 0.923879 -0.382684 -0.000000
v 0.707107 -0.707107 -0.000000
v 0.382683 -0.923880 -0.000000
v 0.353553 0.923880 0.146446
v 0.653281 0.707107 0.270598
v 0.853553 0.382683 0.353553
v 0.923879 -0.000000 0.382683
v 0.853553 -0.382684 0.353553
v 0.653281 -0.707107 0.270598
v 0.353553 -0.923880 0.146446
v 0.270598 0.923880 0.270598
v 0.500000 0.707107 0.500000
v 0.653281 0.382683 0.653281
v 0.707106 -0.000000 0.707107
v 0.653281 -0.382684 0.653281
v 0.500000 -0.707107 0.500000
v 0.270598 -0.923880 0.270598
v 0.146446 0.923880 0.353553
v 0.270598 0.707107 0.653281
v 0.353553 0.382683 0.853553
v 0.382683 -0.000000 0.923879
v 0.353553 -0.382684 0.853553
v 0.270598 -0.707107 0.653281
v 0.146446 -0.923880 0.353553
v -0.000000 0.923880 0.382683
v -0.000000 0.707107 0.707106
v -0.000000 0.382683 0.923879
v -0.000000 -0.000000 1.000000
v -0.000000 -0.382684 0.923879
v -0.000000 -0.707107 0.707106
v -0.000000 -0.923880 0.382683
v -0.146447 0.923880 0.353553
v -0.270598 0.707107 0.653281
v -0.353554 0.382683 0.853553
v -0.382684 -0.000000 0.923879
v -0.353554 -0.382684 0.853553
v -0.270598 -0.707107 0.653281
v -0.146447 -0.923880 0.353553
v -0.270598 0.923880 0.270598
v -0.500000 0.707107 0.499999
v -0.653282 0.382683 0.653281
v -0.707107 -0.000000 0.707106
v -0.653282 -0.382684 0.653281
v -0.500000 -0.707107 0.499999
v -0.270598 -0.923880 0.270598
v -0.353553 0.923880 0.146446
v -0.653281 0.707107 0.270597
v -0.853553 0.382683 0.353553
v -0.923879 -0.000000 0.382683
v -0.853553 -0.382684 0.353553
v -0.653281 -0.707107 0.270597
v -0.353553 -0.923880 0.146446
v -0.382683 0.923880 -0.000000
v -0.707106 0.707107 -0.000000
v -0.923879 0.382683 -0.000001
v -1.000000 -0.000000 -0.000001
v -0.923879 -0.382684 -0.000001
v -0.707106 -0.707107 -0.000000
v -0.382683 -0.923880 -0.000000
v -0.353553 0.923880 -0.146447
v -0.653281 0.707107 -0.270598
v -0.853553 0.382683 -0.353554
v -0.923879 -0.000000 -0.382684
v -0.853553 -0.382684 -0.353554
v -0.653281 -0.707107 -0.270598
v -0.353553 -0.923880 -0.146447
v -0.270598 0.923880 -0.270598
v -0.499999 0.707107 -0.500000
v -0.653281 0.382683 -0.653282
v -0.707106 -0.000000 -0.707107
v -0.653281 -0.382684 -0.653282
v -0.499999 -0.707107 -0.500000
v -0.270598 -0.923880 -0.270598
v -0.146446 0.923880 -0.353553
v -0.270598 0.707107 -0.653281
v -0.353553 0.382683 -0.853553
v -0.382683 -0.000000 -0.923880
v -0.353553 -0.382684 -0.853553
v -0.270598 -0.707107 -0.653281
v -0.146446 -0.923880 -0.353553
v -0.000000 1.000000 -0.000000
v 0.000000 0.923880 -0.382683
v 0.000001 -0.000000 -1.000000
v 0.000000 -0.707107 -0.707106
v 0.000000 -1.000000 -0.000000
vt 0.750000 0.750000
vt 0.687500 0.625000
vt 0.750000 0.625000
vt 0.750000 0.875000
vt 0.718750 1.000000
vt 0.687500 0.875000
vt 0.718750 0.000000
vt 0.750000 0.125000
vt 0.687500 0.125000
vt 0.750000 0.250000
vt 0.687500 0.375000
vt 0.687500 0.250000
vt 0.750000 0.500000
vt 0.687500 0.500000
vt 0.687500 0.750000
vt 0.750000 0.375000
vt 0.625000 0.250000
vt 0.625000 0.500000
vt 0.625000 0.750000
vt 0.625000 0.125000
vt 0.625000 0.375000
vt 0.625000 0.625000
vt 0.656250 1.000000
vt 0.625000 0.875000
vt 0.656250 0.000000
vt 0.562500 0.250000
vt 0.562500 0.125000
vt 0.562500 0.375000
vt 0.562500 0.625000
vt 0.593750 1.000000
vt 0.562500 0.875000
vt 0.593750 0.000000
vt 0.562500 0.500000
vt 0.562500 0.750000
vt 0.500000 0.375000
vt 0.500000 0.625000
vt 0.531250 1.000000
vt 0.500000 0.875000
vt 0.531250 0.000000
vt 0.500000 0.125000
vt 0.500000 0.250000
vt 0.500000 0.500000
vt 0.500000 0.750000
vt 0.468750 0.000000
vt 0.437500 0.125000
vt 0.437500 0.250000
vt 0.437500 0.500000
vt 0.437500 0.875000
vt 0.437500 0.750000
vt 0.437500 0.375000
vt 0.437500 0.625000
vt 0.468750 1.000000
vt 0.375000 0.500000
vt 0.375000 0.875000
vt 0.375000 0.750000
vt 0.375000 0.125000
vt 0.375000 0.375000
vt 0.375000 0.625000
vt 0.406250 1.000000
vt 0.406250 0.000000
vt 0.375000 0.250000
vt 0.312500 0.250000
vt 0.312500 0.125000
vt 0.312500 0.375000
vt 0.312500 0.625000
vt 0.343750 1.000000
vt 0.312500 0.875000
vt 0.343750 0.000000
vt 0.312500 0.500000
vt 0.312500 0.750000
vt 0.250000 0.625000
vt 0.281250 1.000000
vt 0.250000 0.875000
vt 0.281250 0.000000
vt 0.250000 0.125000
vt 0.250000 0.250000
vt 0.250000 0.500000
vt 0.250000 0.750000
vt 0.250000 0.375000
vt 0.218750 0.000000
vt 0.187500 0.125000
vt 0.187500 0.250000
vt 0.187500 0.500000
vt 0.187500 0.875000
vt 0.187500 0.750000
vt 0.187500 0.375000
vt 0.187500 0.625000
vt 0.218750 1.000000
vt 0.125000 0.750000
vt 0.125000 0.125000
vt 0.125000 0.375000
vt 0.125000 0.625000
vt 0.156250 1.000000
vt 0.125000 0.875000
vt 0.156250 0.000000
vt 0.125000 0.250000
vt 0.125000 0.500000
vt 0.062500 0.125000
vt 0.062500 0.375000
vt 0.062500 0.750000
vt 0.062500 0.625000
vt 0.093750 1.000000
vt 0.062500 0.875000
vt 0.093750 0.000000
vt 0.062500 0.250000
vt 0.062500 0.500000
vt 0.031250 1.000000
vt 0.000000 0.875000
vt 0.031250 0.000000
vt 0.000000 0.125000
vt 0.000000 0.375000
vt 0.000000 0.250000
vt 0.000000 0.500000
vt 0.000000 0.750000
vt 0.000000 0.625000
vt 1.000000 0.250000
vt 0.937500 0.375000
vt 0.937500 0.250000
vt 1.000000 0.500000
vt 0.937500 0.625000
vt 0.937500 0.500000
vt 1.000000 0.750000
vt 0.937500 0.875000
vt 0.937500 0.750000
vt 0.937500 0.125000
vt 1.000000 0.125000
vt 1.000000 0.375000
vt 1.000000 0.625000
vt 1.000000 0.875000
vt 0.968750 1.000000
vt 0.968750 0.000000
vt 0.875000 0.125000
vt 0.875000 0.375000
vt 0.875000 0.625000
vt 0.906250 1.000000
vt 0.875000 0.875000
vt 0.906250 0.000000
vt 0.875000 0.250000
vt 0.875000 0.500000
vt 0.875000 0.750000
vt 0.812500 0.375000
vt 0.812500 0.625000
vt 0.843750 1.000000
vt 0.812500 0.875000
vt 0.843750 0.000000
vt 0.812500 0.125000
vt 0.812500 0.250000
vt 0.812500 0.500000
vt 0.812500 0.750000
vt 0.781250 0.000000
vt 0.781250 1.000000
vn 0.0000 0.6952 -0.7188
vn 0.3548 0.3743 -0.8567
vn 0.0000 0.3743 -0.9273
vn 0.0000 0.9152 -0.4031
vn 0.0000 1.0000 0.0000
vn 0.1542 0.9152 -0.3724
vn 0.0000 -1.0000 0.0000
vn 0.0000 -0.9152 -0.4031
vn 0.1542 -0.9152 -0.3724
vn 0.0000 -0.6952 -0.7188
vn 0.3548 -0.3743 -0.8567
vn 0.2751 -0.6952 -0.6641
vn 0.0000 0.0000 -1.0000
vn 0.3827 0.0000 -0.9239
vn 0.2751 0.6952 -0.6641
vn 0.0000 -0.3743 -0.9273
vn 0.5083 -0.6952 -0.5083
vn 0.7071 0.0000 -0.7071
vn 0.5083 0.6952 -0.5083
vn 0.2850 -0.9152 -0.2850
vn 0.6557 -0.3743 -0.6557
vn 0.6557 0.3743 -0.6557
vn 0.2850 0.9152 -0.2850
vn 0.6641 -0.6952 -0.2751
vn 0.3724 -0.9152 -0.1542
vn 0.8567 -0.3743 -0.3548
vn 0.8567 0.3743 -0.3548
vn 0.3724 0.9152 -0.1542
vn 0.9239 0.0000 -0.3827
vn 0.6641 0.6952 -0.2751
vn 0.9273 -0.3743 0.0000
vn 0.9273 0.3743 0.0000
vn 0.4031 0.9152 0.0000
vn 0.4031 -0.9152 0.0000
vn 0.7188 -0.6952 0.0000
vn 1.0000 0.0000 0.0000
vn 0.7188 0.6952 0.0000
vn 0.3724 -0.9152 0.1542
vn 0.6641 -0.6952 0.2751
vn 0.9239 0.0000 0.3827
vn 0.3724 0.9152 0.1542
vn 0.6641 0.6952 0.2751
vn 0.8567 -0.3743 0.3548
vn 0.8567 0.3743 0.3548
vn 0.7071 0.0000 0.7071
vn 0.2850 0.9152 0.2850
vn 0.5083 0.6952 0.5083
vn 0.2850 -0.9152 0.2850
vn 0.6557 -0.3743 0.6557
vn 0.6557 0.3743 0.6557
vn 0.5083 -0.6952 0.5083
vn 0.2751 -0.6952 0.6641
vn 0.1542 -0.9152 0.3724
vn 0.3548 -0.3743 0.8567
vn 0.3548 0.3743 0.8567
vn 0.1542 0.9152 0.3724
vn 0.3827 0.0000 0.9239
vn 0.2751 0.6952 0.6641
vn 0.0000 0.3743 0.9273
vn 0.0000 0.9152 0.4031
vn 0.0000 -0.9152 0.4031
vn 0.0000 -0.6952 0.7188
vn 0.0000 0.0000 1.0000
vn 0.0000 0.6952 0.7188
vn 0.0000 -0.3743 0.9273
vn -0.1542 -0.9152 0.3724
vn -0.2751 -0.6952 0.6641
vn -0.3827 0.0000 0.9239
vn -0.1542 0.9152 0.3724
vn -0.2751 0.6952 0.6641
vn -0.3548 -0.3743 0.8567
vn -0.3548 0.3743 0.8567
vn -0.5083 0.6952 0.5083
vn -0.2850 -0.9152 0.2850
vn -0.6557 -0.3743 0.6557
vn -0.6557 0.3743 0.6557
vn -0.2850 0.9152 0.2850
vn -0.5083 -0.6952 0.5083
vn -0.7071 0.0000 0.7071
vn -0.3724 -0.9152 0.1542
vn -0.8567 -0.3743 0.3548
vn -0.6641 0.6952 0.2751
vn -0.8567 0.3743 0.3548
vn -0.3724 0.9152 0.1542
vn -0.6641 -0.6952 0.2751
vn -0.9239 0.0000 0.3827
vn -0.4031 0.9152 0.0000
vn -0.4031 -0.9152 0.0000
vn -0.9273 -0.3743 0.0000
vn -0.7188 -0.6952 0.0000
vn -1.0000 0.0000 0.0000
vn -0.7188 0.6952 0.0000
vn -0.9273 0.3743 0.0000
vn -0.8567 -0.3743 -0.3548
vn -0.6641 -0.6952 -0.2751
vn -0.8567 0.3743 -0.3548
vn -0.9239 0.0000 -0.3827
vn -0.3724 0.9152 -0.1542
vn -0.6641 0.6952 -0.2751
vn -0.3724 -0.9152 -0.1542
vn -0.2850 -0.9152 -0.2850
vn -0.6557 -0.3743 -0.6557
vn -0.6557 0.3743 -0.6557
vn -0.2850 0.9152 -0.2850
vn -0.5083 -0.6952 -0.5083
vn -0.7071 0.0000 -0.7071
vn -0.5083 0.6952 -0.5083
vn -0.3548 -0.3743 -0.8567
vn -0.3548 0.3743 -0.8567
vn -0.1542 0.9152 -0.3724
vn -0.1542 -0.9152 -0.3724
vn -0.2751 -0.6952 -0.6641
vn -0.3827 0.0000 -0.9239
vn -0.2751 0.6952 -0.6641
usemtl None
s 1
f 1/1/1 7/2/2 2/3/3
f 111/4/4 110/5/5 5/6/6
f 114/7/7 4/8/8 11/9/9
f 113/10/10 9/11/11 10/12/12
f 112/13/13 7/2/2 8/14/14
f 111/4/4 6/15/15 1/1/1
f 113/10/10 11/9/9 4/8/8
f 112/13/13 9/11/11 3/16/16
f 9/11/11 17/17/17 10/12/12
f 7/2/2 15/18/18 8/14/14
f 5/6/6 13/19/19 6/15/15
f 10/12/12 18/20/20 11/9/9
f 8/14/14 16/21/21 9/11/11
f 6/15/15 14/22/22 7/2/2
f 5/6/6 110/23/5 12/24/23
f 114/25/7 11/9/9 18/20/20
f 18/20/20 24/26/24 25/27/25
f 15/18/18 23/28/26 16/21/21
f 13/19/19 21/29/27 14/22/22
f 12/24/23 110/30/5 19/31/28
f 114/32/7 18/20/20 25/27/25
f 16/21/21 24/26/24 17/17/17
f 15/18/18 21/29/27 22/33/29
f 13/19/19 19/31/28 20/34/30
f 22/33/29 30/35/31 23/28/26
f 20/34/30 28/36/32 21/29/27
f 19/31/28 110/37/5 26/38/33
f 114/39/7 25/27/25 32/40/34
f 23/28/26 31/41/35 24/26/24
f 21/29/27 29/42/36 22/33/29
f 20/34/30 26/38/33 27/43/37
f 25/27/25 31/41/35 32/40/34
f 114/44/7 32/40/34 39/45/38
f 30/35/31 38/46/39 31/41/35
f 28/36/32 36/47/40 29/42/36
f 27/43/37 33/48/41 34/49/42
f 31/41/35 39/45/38 32/40/34
f 29/42/36 37/50/43 30/35/31
f 28/36/32 34/49/42 35/51/44
f 26/38/33 110/52/5 33/48/41
f 35/51/44 43/53/45 36/47/40
f 34/49/42 40/54/46 41/55/47
f 38/46/39 46/56/48 39/45/38
f 36/47/40 44/57/49 37/50/43
f 34/49/42 42/58/50 35/51/44
f 33/48/41 110/59/5 40/54/46
f 114/60/7 39/45/38 46/56/48
f 37/50/43 45/61/51 38/46/39
f 46/56/48 52/62/52 53/63/53
f 43/53/45 51/64/54 44/57/49
f 41/55/47 49/65/55 42/58/50
f 40/54/46 110/66/5 47/67/56
f 114/68/7 46/56/48 53/63/53
f 44/57/49 52/62/52 45/61/51
f 43/53/45 49/65/55 50/69/57
f 41/55/47 47/67/56 48/70/58
f 48/70/58 56/71/59 49/65/55
f 47/67/56 110/72/5 54/73/60
f 114/74/7 53/63/53 60/75/61
f 51/64/54 59/76/62 52/62/52
f 49/65/55 57/77/63 50/69/57
f 48/70/58 54/73/60 55/78/64
f 53/63/53 59/76/62 60/75/61
f 50/69/57 58/79/65 51/64/54
f 114/80/7 60/75/61 67/81/66
f 58/79/65 66/82/67 59/76/62
f 56/71/59 64/83/68 57/77/63
f 55/78/64 61/84/69 62/85/70
f 60/75/61 66/82/67 67/81/66
f 57/77/63 65/86/71 58/79/65
f 55/78/64 63/87/72 56/71/59
f 54/73/60 110/88/5 61/84/69
f 61/84/69 69/89/73 62/85/70
f 66/82/67 74/90/74 67/81/66
f 64/83/68 72/91/75 65/86/71
f 62/85/70 70/92/76 63/87/72
f 61/84/69 110/93/5 68/94/77
f 114/95/7 67/81/66 74/90/74
f 66/82/67 72/91/75 73/96/78
f 64/83/68 70/92/76 71/97/79
f 73/96/78 81/98/80 74/90/74
f 71/97/79 79/99/81 72/91/75
f 70/92/76 76/100/82 77/101/83
f 68/94/77 110/102/5 75/103/84
f 114/104/7 74/90/74 81/98/80
f 72/91/75 80/105/85 73/96/78
f 70/92/76 78/106/86 71/97/79
f 69/89/73 75/103/84 76/100/82
f 75/103/84 110/107/5 82/108/87
f 114/109/7 81/98/80 88/110/88
f 80/105/85 86/111/89 87/112/90
f 77/101/83 85/113/91 78/106/86
f 76/100/82 82/108/87 83/114/92
f 81/98/80 87/112/90 88/110/88
f 78/106/86 86/111/89 79/99/81
f 76/100/82 84/115/93 77/101/83
f 87/116/90 93/117/94 94/118/95
f 85/119/91 91/120/96 92/121/97
f 83/122/92 89/123/98 90/124/99
f 87/116/90 95/125/100 88/126/88
f 85/119/91 93/117/94 86/127/89
f 83/122/92 91/120/96 84/128/93
f 82/129/87 110/130/5 89/123/98
f 114/131/7 88/126/88 95/125/100
f 94/118/95 102/132/101 95/125/100
f 92/121/97 100/133/102 93/117/94
f 90/124/99 98/134/103 91/120/96
f 89/123/98 110/135/5 96/136/104
f 114/137/7 95/125/100 102/132/101
f 93/117/94 101/138/105 94/118/95
f 92/121/97 98/134/103 99/139/106
f 90/124/99 96/136/104 97/140/107
f 99/139/106 107/141/108 100/133/102
f 97/140/107 105/142/109 98/134/103
f 96/136/104 110/143/5 103/144/110
f 114/145/7 102/132/101 109/146/111
f 100/133/102 108/147/112 101/138/105
f 98/134/103 106/148/113 99/139/106
f 97/140/107 103/144/110 104/149/114
f 101/138/105 109/146/111 102/132/101
f 114/150/7 109/146/111 4/8/8
f 108/147/112 3/16/16 113/10/10
f 106/148/113 2/3/3 112/13/13
f 103/144/110 1/1/1 104/149/114
f 108/147/112 4/8/8 109/146/111
f 106/148/113 3/16/16 107/141/108
f 105/142/109 1/1/1 2/3/3
f 103/144/110 110/151/5 111/4/4
f 1/1/1 6/15/15 7/2/2
f 113/10/10 3/16/16 9/11/11
f 112/13/13 2/3/3 7/2/2
f 111/4/4 5/6/6 6/15/15
f 113/10/10 10/12/12 11/9/9
f 112/13/13 8/14/14 9/11/11
f 9/11/11 16/21/21 17/17/17
f 7/2/2 14/22/22 15/18/18
f 5/6/6 12/24/23 13/19/19
f 10/12/12 17/17/17 18/20/20
f 8/14/14 15/18/18 16/21/21
f 6/15/15 13/19/19 14/22/22
f 18/20/20 17/17/17 24/26/24
f 15/18/18 22/33/29 23/28/26
f 13/19/19 20/34/30 21/29/27
f 16/21/21 23/28/26 24/26/24
f 15/18/18 14/22/22 21/29/27
f 13/19/19 12/24/23 19/31/28
f 22/33/29 29/42/36 30/35/31
f 20/34/30 27/43/37 28/36/32
f 23/28/26 30/35/31 31/41/35
f 21/29/27 28/36/32 29/42/36
f 20/34/30 19/31/28 26/38/33
f 25/27/25 24/26/24 31/41/35
f 30/35/31 37/50/43 38/46/39
f 28/36/32 35/51/44 36/47/40
f 27/43/37 26/38/33 33/48/41
f 31/41/35 38/46/39 39/45/38
f 29/42/36 36/47/40 37/50/43
f 28/36/32 27/43/37 34/49/42
f 35/51/44 42/58/50 43/53/45
f 34/49/42 33/48/41 40/54/46
f 38/46/39 45/61/51 46/56/48
f 36/47/40 43/53/45 44/57/49
f 34/49/42 41/55/47 42/58/50
f 37/50/43 44/57/49 45/61/51
f 46/56/48 45/61/51 52/62/52
f 43/53/45 50/69/57 51/64/54
f 41/55/47 48/70/58 49/65/55
f 44/57/49 51/64/54 52/62/52
f 43/53/45 42/58/50 49/65/55
f 41/55/47 40/54/46 47/67/56
f 48/70/58 55/78/64 56/71/59
f 51/64/54 58/79/65 59/76/62
f 49/65/55 56/71/59 57/77/63
f 48/70/58 47/67/56 54/73/60
f 53/63/53 52/62/52 59/76/62
f 50/69/57 57/77/63 58/79/65
f 58/79/65 65/86/71 66/82/67
f 56/71/59 63/87/72 64/83/68
f 55/78/64 54/73/60 61/84/69
f 60/75/61 59/76/62 66/82/67
f 57/77/63 64/83/68 65/86/71
f 55/78/64 62/85/70 63/87/72
f 61/84/69 68/94/77 69/89/73
f 66/82/67 73/96/78 74/90/74
f 64/83/68 71/97/79 72/91/75
f 62/85/70 69/89/73 70/92/76
f 66/82/67 65/86/71 72/91/75
f 64/83/68 63/87/72 70/92/76
f 73/96/78 80/105/85 81/98/80
f 71/97/79 78/106/86 79/99/81
f 70/92/76 69/89/73 76/100/82
f 72/91/75 79/99/81 80/105/85
f 70/92/76 77/101/83 78/106/86
f 69/89/73 68/94/77 75/103/84
f 80/105/85 79/99/81 86/111/89
f 77/101/83 84/115/93 85/113/91
f 76/100/82 75/103/84 82/108/87
f 81/98/80 80/105/85 87/112/90
f 78/106/86 85/113/91 86/111/89
f 76/100/82 83/114/92 84/115/93
f 87/116/90 86/127/89 93/117/94
f 85/119/91 84/128/93 91/120/96
f 83/122/92 82/129/87 89/123/98
f 87/116/90 94/118/95 95/125/100
f 85/119/91 92/121/97 93/117/94
f 83/122/92 90/124/99 91/120/96
f 94/118/95 101/138/105 102/132/101
f 92/121/97 99/139/106 100/133/102
f 90/124/99 97/140/107 98/134/103
f 93/117/94 100/133/102 101/138/105
f 92/121/97 91/120/96 98/134/103
f 90/124/99 89/123/98 96/136/104
f 99/139/106 106/148/113 107/141/108
f 97/140/107 104/149/114 105/142/109
f 100/133/102 107/141/108 108/147/112
f 98/134/103 105/142/109 106/148/113
f 97/140/107 96/136/104 103/144/110
f 101/138/105 108/147/112 109/146/111
f 108/147/112 107/141/108 3/16/16
f 106/148/113 105/142/109 2/3/3
f 103/144/110 111/4/4 1/1/1
f 108/147/112 113/10/10 4/8/8
f 106/148/113 112/13/13 3/16/16
f 105/142/109 104/149/114 1/1/1
